# xmcd
#
# Track frame offsets:
#	150
#	17942
#	30142
#	42287
#	58855
#	73982
#	86660
#	100995
#	113805
#	131295
#	146380
#	159442
#	181770
#	195222
#	207372
#	220050
#	235665
#	248687
#	262880
#	273320
#	287780
#	305452
#	320665
#	333197
#
# Disc length: 4616 seconds
#
# Revision: 1
# Processed by: cddbd v1.5.2PL0 Copyright (c) Steve Scherf et al.
# Submitted via: audiograbber 1.83.01
#
DISCID=4d120618
DTITLE=BOBY ANGEL - THE HEART AND SOUL CD 2
DYEAR=1900
DGENRE=Country
TTITLE0=HIGHER AND HIGHER
TTITLE1=SUNFLOWER
TTITLE2=YOU'RE NOT THE WOMAN YOU USE TO BE
TTITLE3=ODE TO BILLY JOE
TTITLE4=KELLY'S SONG
TTITLE5=ALL TOGETHER NOW LET'S FALL APART
TTITLE6=I RECALL A GYPSY WOMAN
TTITLE7=SOME BROKEN HEARTS NEVER MEND
TTITLE8=LIVING NEXT DOOR TO ALICE
TTITLE9=LIKE YOU
TTITLE10=PARDON ME (FOR LOVING YOU)
TTITLE11=SUNDAY MORNING COMING DOWN
TTITLE12=I NEED SOME ONE TO HOLD ME WHEN I CRY
TTITLE13=LET ME TAKE YOU IN MY ARMS
TTITLE14=YOU'RE MY LOVE YOU'RE MY LIFE
TTITLE15=VOICES (AND BARBARA RAY)
TTITLE16=SWEET LITTLE SIXTEEN
TTITLE17=GENTLE ON MY MIND
TTITLE18=YOU'RE MY BEST FRIEND
TTITLE19=MAMA DON'T LET THE BABIES GROW TO BE COWBOYS
TTITLE20=TILL THE RIVERS ALL RUN DRY
TTITLE21=L'EST LA VIE
TTITLE22=WASN'T THAT LOVE
TTITLE23=DREAM OF ME
EXTD=
EXTT0=
EXTT1=
EXTT2=
EXTT3=
EXTT4=
EXTT5=
EXTT6=
EXTT7=
EXTT8=
EXTT9=
EXTT10=
EXTT11=
EXTT12=
EXTT13=
EXTT14=
EXTT15=
EXTT16=
EXTT17=
EXTT18=
EXTT19=
EXTT20=
EXTT21=
EXTT22=
EXTT23=
PLAYORDER=
